# xmcd CD database file
#
# Track frame offsets:
#	150
#	19692
#	42445
#	75165
#	97532
#	138590
#	161735
#	185980
#	224127
#
# Disc length: 4440 seconds
#
# Revision: 2
# Processed by: cddbd v1.5.1PL0 Copyright (c) Steve Scherf et al.
# Submitted via: CDex 1.51
#
DISCID=76115609
DTITLE=SUPER BELL”Z - MOTOR MANでGO！
DYEAR=2004
DGENRE=Pop
TTITLE0=MOTOR MANでGO！
TTITLE1=MOTOR MAN 山手GO・GO! R
TTITLE2=MOTOR MAN 山手GO・GO! L
TTITLE3=MOTOR MAN 中華特急みなとみらい
TTITLE4=MOTOR MAN 大阪環状線 WEST ROUND (天王寺 - 大阪)
TTITLE5=MOTOR MAN 大阪環状線 Re-LINE EAST (大阪 - 天王寺)
TTITLE6=かいじ101号
TTITLE7=ムーンライトながら〜の思い出
TTITLE8=NO MUSIC(FUCK CCCD!)
EXTD=YEAR: 2004
EXTT0=
EXTT1=
EXTT2=
EXTT3=
EXTT4=
EXTT5=
EXTT6=
EXTT7=
EXTT8=
PLAYORDER=
